<svg width="100%" height="100%" viewBox="0 0 868 1500" fill="none" xmlns="http://www.w3.org/2000/svg">
<g id="Frame 1">
<rect width="1200" height="1000" fill="none"/>
<path id="Polygon 1 (Stroke)" fill-rule="evenodd" clip-rule="evenodd" d="M434.452 114L279 465.75H589.903L434.452 114ZM434.452 116.474L280.535 464.75H588.368L434.452 116.474Z" fill="black"/>
<path id="Polygon 2 (Stroke)" fill-rule="evenodd" clip-rule="evenodd" d="M434.452 320L279 671.75H589.903L434.452 320ZM434.452 322.474L280.535 670.75H588.368L434.452 322.474Z" fill="black"/>
<path id="Polygon 3 (Stroke)" fill-rule="evenodd" clip-rule="evenodd" d="M434.548 1022.66L590 670.912H279.097L434.548 1022.66ZM434.548 1020.19L588.465 671.912H280.632L434.548 1020.19Z" fill="black"/>
<path id="Polygon 4 (Stroke)" fill-rule="evenodd" clip-rule="evenodd" d="M434.548 1219L590 867.25H279.097L434.548 1219ZM434.548 1216.53L588.465 868.25H280.632L434.548 1216.53Z" fill="black"/>
<path id="Ellipse 1 (Stroke)" fill-rule="evenodd" clip-rule="evenodd" d="M434 867C555.589 867 654 776.927 654 666C654 555.073 555.589 465 434 465C312.411 465 214 555.073 214 666C214 776.927 312.411 867 434 867ZM434 868C556.055 868 655 777.562 655 666C655 554.438 556.055 464 434 464C311.945 464 213 554.438 213 666C213 777.562 311.945 868 434 868Z" fill="black"/>
<path id="Vector 1 (Stroke)" fill-rule="evenodd" clip-rule="evenodd" d="M700.875 418.489L430.432 900.278L168 418.484L168.878 418.006L430.446 898.212L700.003 418L700.875 418.489Z" fill="black"/>
</g>
</svg>
