<svg width="1100" height="100" viewBox="0 -50 1100 400" fill="none" xmlns="http://www.w3.org/2000/svg">
<rect width="1113" height="200" fill=""/>
<g id="Frame">
<path id="Vector" d="M85.3658 200C70.6113 200 57.5812 197.238 46.2758 191.713C35.162 186.004 26.2518 178.361 19.5452 168.785C13.0302 159.208 8.14398 148.619 4.88649 137.017C1.62899 125.414 0 113.076 0 100C0 87.1087 1.72464 74.8619 5.17375 63.2596C8.62287 51.4733 13.7008 40.8839 20.4074 31.4916C27.114 21.9152 36.0241 14.2725 47.138 8.56349C58.4434 2.85447 71.1862 0 85.3658 0C102.42 0 115.833 3.03868 125.605 9.11602C135.569 15.1934 143.905 23.4806 150.612 33.9779L128.192 46.4088C122.827 38.8582 116.887 33.0571 110.372 29.0055C103.857 24.7698 95.5216 22.6519 85.3658 22.6519C76.7431 22.6519 68.9826 24.2173 62.0843 27.3481C55.1861 30.4788 49.5332 34.6224 45.126 39.779C40.7188 44.7513 36.9822 50.6446 33.9163 57.4586C31.042 64.2726 28.9344 71.2707 27.5931 78.453C26.4434 85.4512 25.8684 92.6336 25.8684 100C25.8684 121.731 30.8507 140.055 40.8148 154.973C50.7789 169.705 65.6292 177.072 85.3658 177.072C98.9707 177.072 109.893 173.02 118.132 164.917C126.372 156.63 130.492 145.856 130.492 132.597V124.862H93.9886V102.762H156.648V125.967C156.648 149.356 149.941 167.588 136.528 180.663C123.306 193.554 106.252 200 85.3658 200Z" fill="black"/>
<path id="Vector_2" d="M206.509 196.685V3.31485H285.839C308.067 3.31485 324.162 8.56351 334.126 19.0608C344.282 29.558 349.36 42.6335 349.36 58.2873C349.36 70.9945 345.432 82.4125 337.575 92.5414C329.911 102.486 318.222 109.024 302.51 112.155L345.623 196.685H317.456L276.066 113.812H231.515V196.685H206.509ZM231.515 91.4365H286.413C299.443 91.4365 308.929 88.3057 314.869 82.0441C321.001 75.7826 324.066 68.0479 324.066 58.8398C324.066 50 321.097 42.2652 315.156 35.6354C309.408 29.0055 299.827 25.6906 286.413 25.6906H231.515V91.4365Z" fill="black"/>
<path id="Vector_3" d="M474.402 200C459.264 200 445.947 197.146 434.45 191.437C423.144 185.543 414.234 177.716 407.719 167.956C401.395 158.011 396.701 147.422 393.635 136.188C390.569 124.77 389.036 112.707 389.036 100C389.036 87.2929 390.569 75.3222 393.635 64.0883C396.701 52.6703 401.395 42.081 407.719 32.3204C414.234 22.3757 423.144 14.5488 434.45 8.83976C445.947 2.94657 459.264 0 474.402 0C486.665 0 497.683 1.93368 507.456 5.80108C517.42 9.66849 525.563 14.8251 531.887 21.2707C538.402 27.7164 543.767 35.3591 547.983 44.1989C552.39 53.0387 555.456 62.0627 557.18 71.2708C559.097 80.4789 560.055 90.0553 560.055 100C560.055 109.945 559.097 119.521 557.18 128.729C555.456 137.937 552.39 146.961 547.983 155.801C543.767 164.641 538.402 172.284 531.887 178.729C525.563 185.175 517.42 190.332 507.456 194.199C497.683 198.066 486.665 200 474.402 200ZM446.521 170.718C454.569 175.138 463.863 177.348 474.402 177.348C484.941 177.348 494.234 175.046 502.282 170.442C510.33 165.654 516.558 159.392 520.965 151.657C525.372 143.923 528.629 135.727 530.737 127.072C532.845 118.232 533.899 109.208 533.899 100C533.899 86.3721 532.079 74.0332 528.438 62.9835C524.989 51.7496 518.569 42.1731 509.18 34.2541C499.983 26.3352 488.39 22.3757 474.402 22.3757C463.863 22.3757 454.569 24.7697 446.521 29.5579C438.665 34.162 432.533 40.4235 428.126 48.3425C423.719 56.0773 420.366 64.2726 418.066 72.9282C415.958 81.5838 414.904 90.6078 414.904 100C414.904 109.945 415.958 119.337 418.066 128.177C420.174 137.017 423.431 145.212 427.839 152.763C432.438 160.313 438.665 166.298 446.521 170.718Z" fill="black"/>
<path id="Vector_4" d="M684.358 200C669.22 200 655.902 197.146 644.405 191.437C633.1 185.543 624.189 177.716 617.674 167.956C611.351 158.011 606.657 147.422 603.591 136.188C600.525 124.77 598.992 112.707 598.992 100C598.992 87.2929 600.525 75.3222 603.591 64.0883C606.657 52.6703 611.351 42.081 617.674 32.3204C624.189 22.3757 633.1 14.5488 644.405 8.83976C655.902 2.94657 669.22 0 684.358 0C696.621 0 707.639 1.93368 717.411 5.80108C727.375 9.66849 735.519 14.8251 741.843 21.2707C748.358 27.7164 753.723 35.3591 757.939 44.1989C762.346 53.0387 765.412 62.0627 767.136 71.2708C769.052 80.4789 770.01 90.0553 770.01 100C770.01 109.945 769.052 119.521 767.136 128.729C765.412 137.937 762.346 146.961 757.939 155.801C753.723 164.641 748.358 172.284 741.843 178.729C735.519 185.175 727.375 190.332 717.411 194.199C707.639 198.066 696.621 200 684.358 200ZM656.477 170.718C664.525 175.138 673.819 177.348 684.358 177.348C694.897 177.348 704.19 175.046 712.238 170.442C720.286 165.654 726.514 159.392 730.921 151.657C735.328 143.923 738.585 135.727 740.693 127.072C742.801 118.232 743.855 109.208 743.855 100C743.855 86.3721 742.034 74.0332 738.394 62.9835C734.945 51.7496 728.525 42.1731 719.136 34.2541C709.938 26.3352 698.346 22.3757 684.358 22.3757C673.819 22.3757 664.525 24.7697 656.477 29.5579C648.621 34.162 642.489 40.4235 638.082 48.3425C633.675 56.0773 630.321 64.2726 628.022 72.9282C625.914 81.5838 624.86 90.6078 624.86 100C624.86 109.945 625.914 119.337 628.022 128.177C630.13 137.017 633.387 145.212 637.795 152.763C642.393 160.313 648.621 166.298 656.477 170.718Z" fill="black"/>
<path id="Vector_5" d="M859.27 196.685L790.288 3.31485H817.018L865.018 143.094C868.467 154.328 870.479 160.866 871.054 162.707C871.821 159.208 873.737 152.67 876.803 143.094L923.366 3.31485H950.097L881.402 196.685H859.27Z" fill="black"/>
<path id="Vector_6" d="M987.107 196.685V3.31485H1106.68V25.9668H1012.11V85.3592H1074.48V108.011H1012.11V173.757H1113V196.685H987.107Z" fill="black"/>
</g>
</svg>
